<?xml version="1.0" encoding="UTF-8" standalone="no"?>
<!-- Created with Inkscape (http://www.inkscape.org/) -->

<svg
   width="1024"
   height="1024"
   viewBox="0 0 1024 1024"
   version="1.1"
   id="svg1"
   inkscape:version="1.4 (e7c3feb1, 2024-10-09)"
   sodipodi:docname="worktrace-app.svg"
   inkscape:export-filename="worktrace.png"
   inkscape:export-xdpi="96"
   inkscape:export-ydpi="96"
   xml:space="preserve"
   xmlns:inkscape="http://www.inkscape.org/namespaces/inkscape"
   xmlns:sodipodi="http://sodipodi.sourceforge.net/DTD/sodipodi-0.dtd"
   xmlns:xlink="http://www.w3.org/1999/xlink"
   xmlns="http://www.w3.org/2000/svg"
   xmlns:svg="http://www.w3.org/2000/svg"><sodipodi:namedview
     id="namedview1"
     pagecolor="#252525"
     bordercolor="#a11919"
     borderopacity="1"
     inkscape:showpageshadow="0"
     inkscape:pageopacity="0"
     inkscape:pagecheckerboard="0"
     inkscape:deskcolor="#353535"
     inkscape:document-units="px"
     showgrid="true"
     inkscape:zoom="0.82698018"
     inkscape:cx="734.60043"
     inkscape:cy="351.27807"
     inkscape:window-width="1112"
     inkscape:window-height="750"
     inkscape:window-x="242"
     inkscape:window-y="25"
     inkscape:window-maximized="0"
     inkscape:current-layer="layer1"
     guidecolor="#00649c"
     guideopacity="0.6"><inkscape:grid
       id="grid1"
       units="px"
       originx="512"
       originy="512"
       spacingx="1"
       spacingy="1"
       empcolor="#000000"
       empopacity="0.30196078"
       color="#000000"
       opacity="0.1254902"
       empspacing="10"
       enabled="true"
       visible="true" /></sodipodi:namedview><defs
     id="defs1"><linearGradient
       inkscape:collect="always"
       xlink:href="#linearGradient4"
       id="linearGradient6"
       x1="512"
       y1="100"
       x2="512"
       y2="924"
       gradientUnits="userSpaceOnUse" /><linearGradient
       id="linearGradient4"
       inkscape:collect="always"><stop
         style="stop-color:#006cc0;stop-opacity:1;"
         offset="0"
         id="stop5" /><stop
         style="stop-color:#42c0ff;stop-opacity:1;"
         offset="0.64563107"
         id="stop6" /></linearGradient><linearGradient
       inkscape:collect="always"
       xlink:href="#linearGradient3"
       id="linearGradient4-7"
       x1="512"
       y1="192.39131"
       x2="512"
       y2="1056"
       gradientUnits="userSpaceOnUse"
       gradientTransform="matrix(0.8359375,0,0,0.79310345,84,119.41379)" /><linearGradient
       id="linearGradient3"
       inkscape:collect="always"><stop
         style="stop-color:#fdfcf3;stop-opacity:1;"
         offset="0"
         id="stop3" /><stop
         style="stop-color:#ffffff;stop-opacity:1;"
         offset="0.32120022"
         id="stop6-5" /><stop
         style="stop-color:#edefef;stop-opacity:1;"
         offset="0.52560037"
         id="stop5-7" /><stop
         style="stop-color:#3b4950;stop-opacity:1;"
         offset="1"
         id="stop4" /></linearGradient><clipPath
       clipPathUnits="userSpaceOnUse"
       id="clipPath14"><path
         id="path14"
         style="fill:none;stroke-width:1.99937;stroke-linejoin:round"
         d="m 100,324 c 0,-42 0,-116 54,-170 54,-54 128,-54 170,-54 h 376 c 42,0 115.96298,-0.037 170,54 54,54 54,128 54,170 v 376 c 0,42 0,116 -54,170 -54,54 -128,54 -170,54 H 324 c -42,0 -116,0 -170,-54 -54,-54 -54,-128 -54,-170 z"
         sodipodi:nodetypes="csccsccsccscc"
         inkscape:label="area" /></clipPath><clipPath
       clipPathUnits="userSpaceOnUse"
       id="clipPath21"><path
         id="path22"
         style="fill:none;fill-opacity:1;stroke-width:1.99937;stroke-linejoin:round"
         d="m 100,324 c 0,-42 0,-116 54,-170 54,-54 128,-54 170,-54 h 376 c 42,0 115.96298,-0.037 170,54 54,54 54,128 54,170 v 376 c 0,42 0,116 -54,170 -54,54 -128,54 -170,54 H 324 c -42,0 -116,0 -170,-54 -54,-54 -54,-128 -54,-170 z"
         sodipodi:nodetypes="csccsccsccscc"
         inkscape:label="area" /></clipPath></defs><g
     inkscape:label="layout"
     inkscape:groupmode="layer"
     id="layer1"><path
       id="rect1"
       style="fill:url(#linearGradient6);stroke-width:1.99937;stroke-linejoin:round"
       d="m 100,324 c 0,-42 0,-116 54,-170 54,-54 128,-54 170,-54 h 376 c 42,0 115.96298,-0.037 170,54 54,54 54,128 54,170 v 376 c 0,42 0,116 -54,170 -54,54 -128,54 -170,54 H 324 c -42,0 -116,0 -170,-54 -54,-54 -54,-128 -54,-170 z"
       sodipodi:nodetypes="csccsccsccscc"
       inkscape:label="sky" /><path
       id="rect2"
       clip-path="url(#clipPath14)"
       style="fill:#0b0f14;stroke-width:12.5;stroke-linecap:round;stroke-linejoin:round"
       inkscape:label="land"
       d="m 0,633 c 362,-1 512,-101 512,-101 0,0 150,100 511.9998,101 v 391 H 0 Z"
       sodipodi:nodetypes="cccccc" /><path
       style="fill:url(#linearGradient4-7);stroke:none;stroke-width:1.62796;stroke-linejoin:round;stroke-dasharray:none;stroke-opacity:1"
       d="m 565.5,319.75862 v 53.44827 C 565.5,550.86206 672.5,627 940,627.69647 v 24.68284 c -160.5,0 -267.5,-50.75862 -267.5,-50.75862 0,0 160.5,76.13793 267.5,76.13793 v 76.13793 c -160.5,0 -267.5,-101.51724 -267.5,-101.51724 0,0 107,126.89655 267.5,203.03448 v 76.13793 H 84 v -76.13793 c 160.5,-76.13793 267.5,-203.03448 267.5,-203.03448 0,0 -107,101.51724 -267.5,106.0958 v -80.71649 c 107,0 267.5,-76.13793 267.5,-76.13793 0,0 -107,50.75862 -267.5,50.75862 V 627 C 351.5,626.73006 458.5,550.86206 458.5,373.20689 V 319.75862 C 459,311 474,302 512,302 c 38,0 53,9 53.5,17.75862 z"
       id="path2"
       sodipodi:nodetypes="cccccccccccccccccccccc"
       inkscape:label="collaborations"
       clip-path="url(#clipPath21)" /><path
       style="fill:#ffffff;fill-opacity:1;stroke-width:12.5;stroke-linecap:round;stroke-linejoin:round"
       d="m 423.20815,267 c 0.0203,4 2.62979,6.80845 5.79185,7.37598 L 721,328 c 2.38159,0.50397 4.16936,-0.68423 4,-3 l -1,-11 C 723,304 667,212 542,182 L 433,156 c -3.54879,-0.78556 -5.72506,1 -6,4 z"
       id="path16"
       inkscape:label="harmer-side"
       sodipodi:nodetypes="ccccccccc" /><path
       style="fill:#ffffff;fill-opacity:0.664452;stroke-width:12.5;stroke-linecap:round;stroke-linejoin:round"
       d="m 437,157 -5,118 c -6,-1 -13.02082,-0.93397 -17,0 l -77,18.37902 c -4.35238,1.00261 -6,-1.37902 -5.69583,-5.33326 l 7.46404,-97.03247 C 340.26373,184.57153 342,181.73881 347,180.19541 L 419,158 c 4.9718,-1.52464 9,-3.84148 18,-1 z"
       id="path21"
       inkscape:label="harmer-front"
       sodipodi:nodetypes="ccccccccc" /><path
       style="display:none;fill:#ffffff;fill-opacity:0.30897;stroke-width:12.5;stroke-linecap:round;stroke-linejoin:round"
       d="M 512,-2048 392,1072 h 400 z"
       id="path17"
       sodipodi:nodetypes="cccc"
       inkscape:label="perspective-top-side" /><path
       style="display:none;fill:#ffffff;fill-opacity:0.156146;stroke-width:12.5;stroke-linecap:round;stroke-linejoin:round"
       d="M 512,-2048 392,1072 H 272 Z"
       id="path18"
       sodipodi:nodetypes="cccc"
       inkscape:label="perspective-top-front" /><path
       style="display:none;fill:#ffffff;fill-opacity:0.30897;stroke-width:12.5;stroke-linecap:round;stroke-linejoin:round"
       d="M 2592,672 -128,22 v 150 z"
       id="path19"
       sodipodi:nodetypes="cccc"
       inkscape:label="perspective-left" /><path
       style="display:none;fill:#ffffff;fill-opacity:0.30897;stroke-width:12.5;stroke-linecap:round;stroke-linejoin:round"
       d="M 1152,-68 V 99 l -2400,573 z"
       id="path20"
       sodipodi:nodetypes="cccc"
       inkscape:label="perspective-right" /></g></svg>
